<?xml version="1.0" encoding="utf-8"?>
<!-- Generator: Adobe Illustrator 25.3.1, SVG Export Plug-In . SVG Version: 6.00 Build 0)  -->
<svg version="1.1" id="Layer_1" xmlns="http://www.w3.org/2000/svg" xmlns:xlink="http://www.w3.org/1999/xlink" x="0px" y="0px"
	 viewBox="0 0 2000 590.4" style="enable-background:new 0 0 2000 590.4;" xml:space="preserve">
<style type="text/css">
	.st0{fill:#FFFFFF;}
</style>
<g>
	<g>
		<g>
			<path class="st0" d="M287.39,540.23L287.39,540.23L0,42.46l0,0c95.29-55.02,217.15-22.37,272.16,72.93l88.15,152.68
				C415.33,363.36,382.68,485.21,287.39,540.23z"/>
		</g>
	</g>
	<g>
		<g>
			<path class="st0" d="M551.99,540.23L551.99,540.23L264.6,42.46l0,0c95.29-55.02,217.15-22.37,272.16,72.93l88.15,152.68
				C679.94,363.36,647.29,485.21,551.99,540.23z"/>
		</g>
	</g>
	<g>
		<g>
			<path class="st0" d="M848.5,44.75L698.89,303.9c-44.36-25.96-74.15-74.11-74.15-129.21c0-82.62,66.98-149.6,149.6-149.6
				C801.33,25.1,826.64,32.25,848.5,44.75z"/>
		</g>
	</g>
</g>
<g>
	<path class="st0" d="M919.86,46.79h35.92l45.21,161.96l48.93-161.96h40.26l48.62,161.96l45.52-161.96h34.37l-60.08,198.19h-40.88
		l-48.62-160.72l-48,160.72h-40.88L919.86,46.79z"/>
	<path class="st0" d="M1248.12,198.53c0-29.11,20.75-42.43,65.96-46.76l49.86-4.95c-0.93-22.92-9.29-36.23-41.19-36.23
		c-29.42,0-37.47,11.77-37.47,31.59l-32.21,0.31c0-32.82,13.63-58.22,69.37-58.22c64.72,0,74.01,27.87,74.01,70.61v90.11h-17.96
		l-6.81-23.84c-7.43,12.39-29.42,26.01-62.24,26.01C1275.37,247.14,1248.12,231.97,1248.12,198.53z M1363.93,176.85v-4.95
		l-44.9,4.95c-27.56,3.1-36.85,8.98-36.85,21.37c0,14.55,12.39,22.92,35.61,22.92C1346.9,221.13,1363.93,204.41,1363.93,176.85z"/>
	<path class="st0" d="M1460.25,199.46v-86.4h-22.61V93.24l22.61-6.81V46.79h32.82v39.64h41.5v26.63H1494v86.4
		c0,14.86,6.19,21.68,40.57,20.13v26.63C1482.23,249.31,1460.25,236.93,1460.25,199.46z"/>
	<path class="st0" d="M1597.74,199.46v-86.4h-22.61V93.24l22.61-6.81V46.79h32.82v39.64h41.5v26.63h-40.57v86.4
		c0,14.86,6.19,21.68,40.57,20.13v26.63C1619.72,249.31,1597.74,236.93,1597.74,199.46z"/>
	<path class="st0" d="M1710.77,198.53c0-29.11,20.75-42.43,65.96-46.76l49.86-4.95c-0.93-22.92-9.29-36.23-41.19-36.23
		c-29.42,0-37.47,11.77-37.47,31.59l-32.21,0.31c0-32.82,13.63-58.22,69.37-58.22c64.72,0,74.01,27.87,74.01,70.61v90.11h-17.96
		l-6.81-23.84c-7.43,12.39-29.42,26.01-62.24,26.01C1738.02,247.14,1710.77,231.97,1710.77,198.53z M1826.58,176.85v-4.95
		l-44.9,4.95c-27.56,3.1-36.85,8.98-36.85,21.37c0,14.55,12.39,22.92,35.61,22.92C1809.55,221.13,1826.58,204.41,1826.58,176.85z"/>
	<path class="st0" d="M1918.25,86.43h17.65l7.74,21.99c4.96-10.53,20.13-24.15,51.1-24.15h5.26v29.42c-3.1,0-6.19-0.62-8.98-0.62
		c-33.13,0-39.64,18.27-39.64,43.97v87.95h-33.13V86.43z"/>
</g>
<g>
	<path class="st0" d="M975.19,309.66h75.56c59.46,0,90.42,34.37,90.42,97.86c0,62.86-33.45,100.33-93.52,100.33h-72.46V309.66z
		 M1041.46,479.98c43.66,0,66.58-19.2,66.58-72.77c-0.31-53.88-21.37-69.68-64.72-69.68h-34.37v142.45H1041.46z"/>
	<path class="st0" d="M1193.51,305.02c0-16.1,9.6-20.13,24.46-20.13c14.25,0,23.54,4.03,23.54,20.13c0,15.79-9.29,19.82-23.54,19.82
		C1203.11,324.84,1193.51,320.81,1193.51,305.02z M1201.25,349.3h32.82v158.55h-32.82V349.3z"/>
	<path class="st0" d="M1285.79,518.69h34.68c1.55,18.27,6.81,29.42,45.83,29.42c36.54,0,43.04-11.15,43.04-20.44
		c0-12.7-17.65-15.48-41.5-19.51c-36.23-6.19-79.59-8.05-79.59-36.23c0-13.63,10.84-21.06,26.94-25.08
		c-17.96-8.98-23.84-25.39-23.84-39.95c0-32.21,13.94-57.6,77.73-57.6h69.68v15.79l-22.3,6.5c9.91,4.96,17.65,17.34,17.65,35.61
		c0,32.82-13.01,55.74-71.84,55.74c-7.74,0-20.13-1.24-27.56-2.17c-12.39,1.55-13.32,5.26-13.32,8.67c0,7.43,13.01,8.67,48,13.32
		c33.75,4.34,74.32,9.6,74.32,43.05c0,23.53-16.41,48.62-78.04,48.62C1302.51,574.43,1285.79,553.99,1285.79,518.69z
		 M1399.75,405.97c0-17.03-6.19-29.42-37.47-29.42c-30.04,0-37.16,12.08-37.16,29.42c0,18.58,6.5,32.21,37.47,32.21
		C1392.63,438.17,1399.75,425.17,1399.75,405.97z"/>
	<path class="st0" d="M1484.6,305.02c0-16.1,9.6-20.13,24.46-20.13c14.25,0,23.54,4.03,23.54,20.13c0,15.79-9.29,19.82-23.54,19.82
		C1494.2,324.84,1484.6,320.81,1484.6,305.02z M1492.34,349.3h32.82v158.55h-32.82V349.3z"/>
	<path class="st0" d="M1596.39,462.33v-86.4h-22.61v-19.82l22.61-6.81v-39.64h32.83v39.64h41.5v26.63h-40.57v86.4
		c0,14.86,6.19,21.68,40.57,20.13v26.63C1618.38,512.19,1596.39,499.8,1596.39,462.33z"/>
	<path class="st0" d="M1709.42,461.4c0-29.11,20.75-42.42,65.96-46.76l49.86-4.96c-0.93-22.92-9.29-36.23-41.19-36.23
		c-29.42,0-37.47,11.77-37.47,31.59l-32.21,0.31c0-32.83,13.63-58.22,69.37-58.22c64.72,0,74.01,27.87,74.01,70.61v90.11h-17.96
		l-6.81-23.84c-7.43,12.39-29.42,26.01-62.24,26.01C1736.67,510.02,1709.42,494.84,1709.42,461.4z M1825.24,439.72v-4.95l-44.9,4.95
		c-27.56,3.1-36.85,8.98-36.85,21.37c0,14.56,12.39,22.92,35.61,22.92C1808.21,484.01,1825.24,467.28,1825.24,439.72z"/>
	<path class="st0" d="M1916.9,288.91h33.13v218.94h-33.13V288.91z"/>
</g>
</svg>
