<?xml version="1.0" encoding="utf-8"?>
<!-- Generator: Adobe Illustrator 25.3.1, SVG Export Plug-In . SVG Version: 6.00 Build 0)  -->
<svg version="1.1" id="Layer_1" xmlns="http://www.w3.org/2000/svg" xmlns:xlink="http://www.w3.org/1999/xlink" x="0px" y="0px"
	 viewBox="0 0 2000 2000" style="enable-background:new 0 0 2000 2000;" xml:space="preserve">
<style type="text/css">
	.st0{fill:#4563C5;}
	.st1{fill:#FFFFFF;}
</style>
<rect class="st0" width="2000" height="2000"/>
<g>
	<g>
		<path class="st1" d="M728.33,1574.81L728.33,1574.81L157.88,586.76l0,0c189.15-109.21,431.02-44.4,540.23,144.75l174.98,303.07
			C982.3,1223.73,917.49,1465.6,728.33,1574.81z"/>
	</g>
	<g>
		<path class="st1" d="M1253.56,1574.81L1253.56,1574.81L683.1,586.76l0,0c189.15-109.21,431.02-44.4,540.23,144.75l174.98,303.07
			C1507.52,1223.73,1442.71,1465.6,1253.56,1574.81z"/>
	</g>
	<g>
		<path class="st1" d="M1842.12,591.31l-296.98,514.4c-88.05-51.54-147.18-147.1-147.18-256.47
			c0-163.99,132.95-296.94,296.94-296.94C1748.47,552.3,1798.72,566.49,1842.12,591.31z"/>
	</g>
</g>
</svg>
